<svg xmlns="http://www.w3.org/2000/svg" viewBox="0 0 128 128">
  <defs>
    <linearGradient id="wvg" x1="0" y1="0" x2="0" y2="1">
      <stop offset="0%" stop-color="#4FC3F7"/>
      <stop offset="100%" stop-color="#01579B"/>
    </linearGradient>
  </defs>
  <path d="M0,64 Q16,48 32,64 Q48,80 64,64 Q80,48 96,64 Q112,80 128,64 L128,128 L0,128Z" fill="url(#wvg)" opacity="0.5"/>
  <path d="M0,76 Q16,60 32,76 Q48,92 64,76 Q80,60 96,76 Q112,92 128,76 L128,128 L0,128Z" fill="url(#wvg)" opacity="0.7"/>
  <path d="M0,88 Q16,72 32,88 Q48,104 64,88 Q80,72 96,88 Q112,104 128,88 L128,128 L0,128Z" fill="url(#wvg)" opacity="0.9"/>
  <path d="M0,100 Q16,84 32,100 Q48,116 64,100 Q80,84 96,100 Q112,116 128,100 L128,128 L0,128Z" fill="#01579B"/>
  <g fill="#FFFFFF" opacity="0.3">
    <ellipse cx="32" cy="60" rx="12" ry="3"/>
    <ellipse cx="80" cy="72" rx="10" ry="2.5"/>
    <ellipse cx="50" cy="84" rx="14" ry="3"/>
  </g>
</svg>