<svg xmlns="http://www.w3.org/2000/svg" viewBox="0 0 128 128">
  <path d="M30 52 L36 108 Q64 118 92 108 L98 52 Z" fill="#E53935" stroke="#C62828" stroke-width="2.5"/>
  <path d="M34 52 L38 100 Q64 110 90 100 L94 52 Z" fill="#EF5350"/>
  <path d="M42 66 L84 66" stroke="#FFC107" stroke-width="3"/>
  <path d="M42 78 L86 78" stroke="#FFC107" stroke-width="3"/>
  <path d="M44 90 L84 90" stroke="#FFC107" stroke-width="3"/>
  <path d="M28 52 Q28 46 36 46 L92 46 Q100 46 100 52 Z" fill="#C62828"/>
  <path d="M30 46 Q64 36 98 46 Z" fill="#FFEE58" stroke="#FDD835" stroke-width="1.5"/>
  <circle cx="50" cy="40" r="8" fill="#FFF9C4" stroke="#FDD835" stroke-width="1"/>
  <circle cx="64" cy="34" r="9" fill="#FFF9C4" stroke="#FDD835" stroke-width="1"/>
  <circle cx="78" cy="40" r="8" fill="#FFF9C4" stroke="#FDD835" stroke-width="1"/>
  <circle cx="42" cy="44" r="6" fill="#FFF9C4" stroke="#FDD835" stroke-width="1"/>
  <circle cx="86" cy="44" r="6" fill="#FFF9C4" stroke="#FDD835" stroke-width="1"/>
  <circle cx="56" cy="36" r="5" fill="#FFF" opacity="0.3"/>
  <circle cx="72" cy="36" r="4" fill="#FFF" opacity="0.3"/>
</svg>