<svg xmlns="http://www.w3.org/2000/svg" viewBox="0 0 128 128">
  <defs>
    <linearGradient id="sheesh-grad" x1="0" y1="0" x2="1" y2="1">
      <stop offset="0%" stop-color="#00E5FF"/>
      <stop offset="50%" stop-color="#18FFFF"/>
      <stop offset="100%" stop-color="#00B8D4"/>
    </linearGradient>
    <pattern id="ht-sheesh" width="4" height="4" patternUnits="userSpaceOnUse">
      <circle cx="2" cy="2" r="1" fill="#FFFFFF" opacity="0.15"/>
    </pattern>
  </defs>
  <polygon points="64,4 80,28 112,14 96,42 126,52 100,66 124,92 90,80 78,112 64,88 50,112 38,80 4,92 28,66 2,52 32,42 16,14 48,28" fill="url(#sheesh-grad)" stroke="#1a1a1a" stroke-width="5" stroke-linejoin="round"/>
  <polygon points="64,4 80,28 112,14 96,42 126,52 100,66 124,92 90,80 78,112 64,88 50,112 38,80 4,92 28,66 2,52 32,42 16,14 48,28" fill="url(#ht-sheesh)"/>
  <text x="64" y="72" text-anchor="middle" font-family="Impact, Arial Black, sans-serif" font-size="34" font-weight="900" fill="#FFFFFF" stroke="#1a1a1a" stroke-width="3" letter-spacing="2">SHEESH</text>
  <path d="M16,118 L20,108 L24,116 L28,104 L32,112" fill="none" stroke="#B2EBF2" stroke-width="3" stroke-linecap="round"/>
  <path d="M96,118 L100,106 L104,114 L108,102 L112,110" fill="none" stroke="#B2EBF2" stroke-width="3" stroke-linecap="round"/>
  <circle cx="14" cy="108" r="2" fill="#E0F7FA" stroke="#1a1a1a" stroke-width="1"/>
  <circle cx="110" cy="106" r="2" fill="#E0F7FA" stroke="#1a1a1a" stroke-width="1"/>
  <circle cx="36" cy="114" r="1.5" fill="#E0F7FA" stroke="#1a1a1a" stroke-width="1"/>
  <circle cx="92" cy="112" r="1.5" fill="#E0F7FA" stroke="#1a1a1a" stroke-width="1"/>
  <path d="M10,22 L18,16" stroke="#B2EBF2" stroke-width="2" stroke-linecap="round"/>
  <path d="M108,18 L116,12" stroke="#B2EBF2" stroke-width="2" stroke-linecap="round"/>
</svg>