<svg xmlns="http://www.w3.org/2000/svg" viewBox="0 0 128 128">
  <defs>
    <radialGradient id="bugBody" cx="50%" cy="45%" r="50%">
      <stop offset="0%" stop-color="#F44336"/>
      <stop offset="100%" stop-color="#C62828"/>
    </radialGradient>
  </defs>
  <line x1="32" y1="20" x2="24" y2="8" stroke="#212121" stroke-width="2.5" stroke-linecap="round"/>
  <line x1="96" y1="20" x2="104" y2="8" stroke="#212121" stroke-width="2.5" stroke-linecap="round"/>
  <circle cx="24" cy="8" r="3" fill="#212121"/>
  <circle cx="104" cy="8" r="3" fill="#212121"/>
  <ellipse cx="64" cy="70" rx="46" ry="46" fill="url(#bugBody)" stroke="#B71C1C" stroke-width="2.5"/>
  <line x1="64" y1="24" x2="64" y2="116" stroke="#212121" stroke-width="3"/>
  <circle cx="42" cy="50" r="8" fill="#212121"/>
  <circle cx="86" cy="50" r="8" fill="#212121"/>
  <circle cx="38" cy="74" r="6" fill="#212121"/>
  <circle cx="90" cy="74" r="6" fill="#212121"/>
  <circle cx="46" cy="94" r="5" fill="#212121"/>
  <circle cx="82" cy="94" r="5" fill="#212121"/>
  <ellipse cx="48" cy="40" rx="8" ry="6" fill="white"/>
  <ellipse cx="80" cy="40" rx="8" ry="6" fill="white"/>
  <ellipse cx="49" cy="41" rx="4.5" ry="3.5" fill="#212121"/>
  <ellipse cx="81" cy="41" rx="4.5" ry="3.5" fill="#212121"/>
  <ellipse cx="51" cy="39" rx="1.5" ry="1.5" fill="white"/>
  <ellipse cx="83" cy="39" rx="1.5" ry="1.5" fill="white"/>
  <path d="M56 50Q64 56 72 50" fill="none" stroke="#5D4037" stroke-width="1.5" stroke-linecap="round"/>
  <ellipse cx="64" cy="68" rx="36" ry="12" fill="#EF5350" opacity="0.3"/>
</svg>